<svg xmlns="http://www.w3.org/2000/svg" width="151" height="30">
  <defs>
    <linearGradient id="a" x1="55.7333969%" x2="5.34789881%" y1="64.0448467%" y2="-47.8613374%">
      <stop offset="44.81%" stop-color="#E23B25"/>
      <stop offset="52.74%" stop-color="#D63723"/>
      <stop offset="67.07%" stop-color="#B62E1E"/>
      <stop offset="86.06%" stop-color="#831F15"/>
      <stop offset="94.36%" stop-color="#6A1811"/>
    </linearGradient>
    <linearGradient id="b" x1="57.5587348%" x2="33.0757003%" y1="48.3934592%" y2="-31.9335868%">
      <stop offset="0%" stop-color="#E23B25"/>
      <stop offset="52.74%" stop-color="#D63723"/>
      <stop offset="67.07%" stop-color="#B62E1E"/>
      <stop offset="86.06%" stop-color="#831F15"/>
      <stop offset="100%" stop-color="#6A1811"/>
    </linearGradient>
    <linearGradient id="c" x1="64.8324138%" x2=".41643678%" y1="105.256825%" y2="-129.732527%">
      <stop offset="42.25%" stop-color="#E23B25"/>
      <stop offset="77.95%" stop-color="#6A1811"/>
    </linearGradient>
    <linearGradient id="d" x1="50.9990613%" x2="22.1774704%" y1="83.6100791%" y2="-166.070158%">
      <stop offset="42.25%" stop-color="#E23B25"/>
      <stop offset="77.95%" stop-color="#6A1811"/>
    </linearGradient>
    <linearGradient id="e" x1="46.2707384%" x2="38.5852149%" y1="38.9733255%" y2="-51.8949562%">
      <stop offset="0%" stop-color="#E23B25"/>
      <stop offset="100%" stop-color="#6A1811"/>
    </linearGradient>
    <linearGradient id="f" x1="55.9605453%" x2="46.5049748%" y1="70.4667098%" y2="-15.3220316%">
      <stop offset="0%" stop-color="#E23B25"/>
      <stop offset="100%" stop-color="#6A1811"/>
    </linearGradient>
    <linearGradient id="g" x1="38.6640982%" x2="141.290384%" y1="38.1104275%" y2="145.702672%">
      <stop offset="0%" stop-color="#E23B25"/>
      <stop offset="100%" stop-color="#6A1811"/>
    </linearGradient>
    <linearGradient id="h" x1="14.5174598%" x2="116.537685%" y1="12.579282%" y2="120.171526%">
      <stop offset="0%" stop-color="#E23B25"/>
      <stop offset="100%" stop-color="#6A1811"/>
    </linearGradient>
    <linearGradient id="i" x1="26.0513812%" x2="159.2667%" y1="12.9520592%" y2="288.264801%">
      <stop offset="31.48%" stop-color="#E23B25"/>
      <stop offset="70.56%" stop-color="#6A1811"/>
    </linearGradient>
    <linearGradient id="j" x1="62.3745776%" x2="189.088859%" y1="77.9969432%" y2="344.894011%">
      <stop offset="31.48%" stop-color="#E23B25"/>
      <stop offset="70.56%" stop-color="#6A1811"/>
    </linearGradient>
    <linearGradient id="k" x1="34.1197075%" x2="63.1844795%" y1="13.8602488%" y2="129.092803%">
      <stop offset="0%" stop-color="#E23B25"/>
      <stop offset="61.4%" stop-color="#C83321"/>
      <stop offset="89.01%" stop-color="#862016"/>
      <stop offset="100%" stop-color="#6A1811"/>
    </linearGradient>
    <linearGradient id="l" x1="34.5923802%" x2="80.9195208%" y1="26.7819293%" y2="168.025136%">
      <stop offset="48.4%" stop-color="#E23B25"/>
      <stop offset="61.4%" stop-color="#C83321"/>
      <stop offset="89.01%" stop-color="#862016"/>
      <stop offset="100%" stop-color="#6A1811"/>
    </linearGradient>
  </defs>
  <g fill="none" fill-rule="evenodd">
    <path fill="url(#a)" d="M149.205605 7.29213483l-.12414-.24719101-5.428326.92134831-.067713.29213484-1.715396.29213483c.236995.59550562.315994 1.30337078.169282 2.0786517-.248281 1.3820225-.823841 2.2921348-2.121674 2.9775281-1.196263.6404494-2.719805.8202247-5.123617.8202247h-2.990658l1.094694-4.3707865.045142-.30337081-5.552467.89887641L127.300448 11l-1.726681.2921348-4.525486 18.1011236h7.042152l2.324814-9.2921348h5.022047c4.141779 0 7.143722-.6516854 9.265397-2.0449438 2.719805-1.7977528 4.017638-3.9213483 4.559342-7.0561798.214424-1.31460674.191853-2.57303371-.056428-3.70786517z"/>
    <path fill="url(#b)" d="M108.28438 14.5280899l-1.320404 5.3820225h6.669731c-1.365546 2.6516854-3.870927 4.1348314-7.188864 4.1348314-4.570628 0-6.5907324-3.6292135-5.981315-8.4719101l.022571-.3146067-5.7443202 1.0224719-.0789985.2696629-1.7266816.2921348c-.4965621 7.258427 3.6226457 13.1123596 11.4322123 13.1123596 3.679073 0 6.635874-1.1685393 8.441554-3.0337079l-.598131 2.4831461h5.902317l3.701644-14.8764045H108.28438z"/>
    <path fill="url(#c)" d="M55.2199552 29.4044944h7.0308669l2.7762332-11.1011236.0112855-.258427-5.2816143-.247191-.3724216.505618h-1.3881166z"/>
    <path fill="url(#d)" d="M73.6491779 23.7303371l1.3655456-5.4269663v-.2696629h-5.5976084l-.067713.2696629H67.972571l-2.7875187 11.1011236h21.4311659l1.4106876-5.6741573z"/>
    <path fill="url(#e)" d="M29.9630045 18.3033708L22.898281 29.4044944h7.798281l3.7129298-6.1460674h11.4434977l.7674141 6.1460674h7.2678625l-1.7266816-11.1011236v-.2022472H31.2495516l-.135426.2022472z"/>
    <path fill="url(#f)" d="M24.3992526 18.3033708l-.022571-.0898877H14.3100149l.1015696.0898877c-.0338565-.011236-.0564275-.0224719 0 0 2.5505231.7752809 3.2727952 1.8764045 3.0357997 3.5730337-.2482811 1.7303371-2.0878177 2.7191011-4.7399104 2.7191011-3.72421521 0-6.59073239-1.8202247-6.29730938-6.1235955H.0338565c-.46270553 6.8988764 4.19820628 11.4719101 12.5833333 11.4719101 6.286024 0 12.0642003-2.988764 12.0642003-9.6067415 0-.7415731-.1015695-1.4157304-.2821375-2.0337079z"/>
    <path fill="url(#g)" d="M63.7517937.84269663L59.3843049 18.3033708h7.030867L70.7826607.84269663z"/>
    <path fill="url(#h)" d="M73.7168909.84269663L69.3494021 18.3033708h7.053438L80.8154709.84269663z"/>
    <path fill="url(#i)" fill-rule="nonzero" d="M42.2303438.84269663L31.1141256 18.3033708h22.4694319L50.8637519.84269663h-8.6334081zM38.9688341 17.5505618l5.5073243-9.12359551h.9479821l1.1285501 9.12359551h-7.5838565z"/>
    <path fill="url(#j)" d="M15.77713.29213483c-7.14372193 0-11.74820623 4.14606742-11.74820623 9.65168539 0 2.98876408 1.46711509 4.96629218 4.44648729 6.33707868 1.88467864.8651685 4.40134534 1.6292135 5.92488794 2.0224719h10.9469357c-.8125561-2.764045-3.3969357-4.4831461-7.369432-5.5955056l-3.6565023-1.0898877c-1.7718236-.5393258-3.2050822-1.247191-3.1937967-2.83146065.0112855-1.46067415 1.1962631-3.05617977 4.3110613-3.05617977 4.0740658 0 6.1505979 2.52808989 5.8571749 5.58426962h6.3085949C28.2137519 4.14606742 22.7967115.29213483 15.77713.29213483z"/>
    <path fill="url(#k)" d="M148.167339 2.48314607c-1.726681-1.3258427-4.107922-1.93258427-7.313004-1.93258427h-10.946936l-2.618236 10.4606742 7.32429-1.2359551.891554-3.59550562h3.780643c1.557399 0 2.539238.21348315 3.408221.88764045.383707.29213483.710987.74157303.88027 1.19101124L150.921001 7c-.383707-1.87640449-1.35426-3.4494382-2.753662-4.51685393z"/>
    <path fill="url(#l)" d="M102.178924 15.2696629c.067713-.4719101.146711-.7752809.259566-1.2584269 1.00441-4.34831465 4.130494-8.05617982 8.520553-8.05617982 2.787519 0 4.536772 1.30337079 5.360613 3.3258427 0 .01123595.011286.02247191.011286.02247191.394992 1.02247191.361136 2.21348311.361136 2.21348311h6.692302C123.38438 4.6741573 119.321599 0 111.162182 0c-7.978849 0-14.0617336 5.47191011-15.9915542 13.2696629-.270852 1.1123596-.4401345 2.2022472-.519133 3.2696629l5.8910312-.988764 1.636398-.2808989z"/>
  </g>
</svg>
